<mxfile host="app.diagrams.net" modified="2024-06-06T04:15:03.805Z" agent="Mozilla/5.0 (Windows NT 10.0; Win64; x64) AppleWebKit/537.36 (KHTML, like Gecko) Chrome/125.0.0.0 Safari/537.36" etag="b_DQwf8v3hQsuksN7cZ9" version="24.4.13" type="github">
  <diagram name="Page-1" id="2YBvvXClWsGukQMizWep">
    <mxGraphModel dx="2390" dy="1243" grid="1" gridSize="10" guides="1" tooltips="1" connect="1" arrows="1" fold="1" page="1" pageScale="1" pageWidth="850" pageHeight="1100" math="0" shadow="0">
      <root>
        <mxCell id="0" />
        <mxCell id="1" parent="0" />
        <mxCell id="dIbCbMfK42CENRf47W4k-7" value="Cliente: Actor" style="shape=umlActor;verticalLabelPosition=bottom;verticalAlign=top;html=1;outlineConnect=0;" parent="1" vertex="1">
          <mxGeometry x="110" y="50" width="30" height="60" as="geometry" />
        </mxCell>
        <mxCell id="dIbCbMfK42CENRf47W4k-8" value="" style="endArrow=none;dashed=1;html=1;rounded=0;" parent="1" source="dIbCbMfK42CENRf47W4k-10" target="dIbCbMfK42CENRf47W4k-7" edge="1">
          <mxGeometry width="50" height="50" relative="1" as="geometry">
            <mxPoint x="125" y="360" as="sourcePoint" />
            <mxPoint x="390" y="160" as="targetPoint" />
          </mxGeometry>
        </mxCell>
        <mxCell id="dIbCbMfK42CENRf47W4k-9" value="" style="endArrow=none;dashed=1;html=1;rounded=0;" parent="1" target="dIbCbMfK42CENRf47W4k-10" edge="1">
          <mxGeometry width="50" height="50" relative="1" as="geometry">
            <mxPoint x="125" y="360" as="sourcePoint" />
            <mxPoint x="125" y="110" as="targetPoint" />
          </mxGeometry>
        </mxCell>
        <mxCell id="dIbCbMfK42CENRf47W4k-15" style="edgeStyle=orthogonalEdgeStyle;rounded=0;orthogonalLoop=1;jettySize=auto;html=1;curved=0;" parent="1" source="dIbCbMfK42CENRf47W4k-10" target="dIbCbMfK42CENRf47W4k-14" edge="1">
          <mxGeometry relative="1" as="geometry">
            <Array as="points">
              <mxPoint x="240" y="160" />
              <mxPoint x="240" y="160" />
            </Array>
          </mxGeometry>
        </mxCell>
        <mxCell id="dIbCbMfK42CENRf47W4k-16" value="1.entrar(tipo)" style="edgeLabel;html=1;align=center;verticalAlign=middle;resizable=0;points=[];" parent="dIbCbMfK42CENRf47W4k-15" vertex="1" connectable="0">
          <mxGeometry x="-0.2571" y="1" relative="1" as="geometry">
            <mxPoint x="19" y="-9" as="offset" />
          </mxGeometry>
        </mxCell>
        <mxCell id="dIbCbMfK42CENRf47W4k-10" value="" style="html=1;points=[[0,0,0,0,5],[0,1,0,0,-5],[1,0,0,0,5],[1,1,0,0,-5]];perimeter=orthogonalPerimeter;outlineConnect=0;targetShapes=umlLifeline;portConstraint=eastwest;newEdgeStyle={&quot;curved&quot;:0,&quot;rounded&quot;:0};" parent="1" vertex="1">
          <mxGeometry x="120" y="150" width="10" height="80" as="geometry" />
        </mxCell>
        <mxCell id="dIbCbMfK42CENRf47W4k-11" value="&amp;lt;&amp;lt;Boundary&amp;gt;&amp;gt;&lt;div&gt;:&lt;span style=&quot;font-style: italic; text-wrap: nowrap; background-color: initial;&quot;&gt;PaginaEntrar&lt;/span&gt;&lt;/div&gt;" style="shape=umlLifeline;perimeter=lifelinePerimeter;whiteSpace=wrap;html=1;container=0;dropTarget=0;collapsible=0;recursiveResize=0;outlineConnect=0;portConstraint=eastwest;newEdgeStyle={&quot;edgeStyle&quot;:&quot;elbowEdgeStyle&quot;,&quot;elbow&quot;:&quot;vertical&quot;,&quot;curved&quot;:0,&quot;rounded&quot;:0};" parent="1" vertex="1">
          <mxGeometry x="190" y="60" width="220" height="300" as="geometry" />
        </mxCell>
        <mxCell id="dIbCbMfK42CENRf47W4k-37" style="edgeStyle=elbowEdgeStyle;rounded=0;orthogonalLoop=1;jettySize=auto;html=1;elbow=vertical;curved=0;" parent="dIbCbMfK42CENRf47W4k-11" target="dIbCbMfK42CENRf47W4k-41" edge="1">
          <mxGeometry relative="1" as="geometry">
            <mxPoint x="289.9999999999998" y="110.21000000000001" as="targetPoint" />
            <mxPoint x="115" y="110.00310344827594" as="sourcePoint" />
          </mxGeometry>
        </mxCell>
        <mxCell id="dIbCbMfK42CENRf47W4k-38" value="1.1 entrar(tipo)" style="edgeLabel;html=1;align=center;verticalAlign=middle;resizable=0;points=[];" parent="dIbCbMfK42CENRf47W4k-37" vertex="1" connectable="0">
          <mxGeometry x="0.1628" y="2" relative="1" as="geometry">
            <mxPoint x="-7" y="-8" as="offset" />
          </mxGeometry>
        </mxCell>
        <mxCell id="dIbCbMfK42CENRf47W4k-14" value="" style="html=1;points=[];perimeter=orthogonalPerimeter;outlineConnect=0;targetShapes=umlLifeline;portConstraint=eastwest;newEdgeStyle={&quot;edgeStyle&quot;:&quot;elbowEdgeStyle&quot;,&quot;elbow&quot;:&quot;vertical&quot;,&quot;curved&quot;:0,&quot;rounded&quot;:0};" parent="dIbCbMfK42CENRf47W4k-11" vertex="1">
          <mxGeometry x="105" y="90" width="10" height="80" as="geometry" />
        </mxCell>
        <mxCell id="dIbCbMfK42CENRf47W4k-41" value="&amp;lt;&amp;lt;Control&amp;gt;&amp;gt;&lt;div&gt;:&lt;span style=&quot;font-style: italic; text-wrap: nowrap; background-color: initial;&quot;&gt;ClienteControl&lt;/span&gt;&lt;/div&gt;" style="shape=umlLifeline;perimeter=lifelinePerimeter;whiteSpace=wrap;html=1;container=0;dropTarget=0;collapsible=0;recursiveResize=0;outlineConnect=0;portConstraint=eastwest;newEdgeStyle={&quot;edgeStyle&quot;:&quot;elbowEdgeStyle&quot;,&quot;elbow&quot;:&quot;vertical&quot;,&quot;curved&quot;:0,&quot;rounded&quot;:0};" parent="1" vertex="1">
          <mxGeometry x="425" y="60" width="220" height="300" as="geometry" />
        </mxCell>
        <mxCell id="dIbCbMfK42CENRf47W4k-42" style="edgeStyle=elbowEdgeStyle;rounded=0;orthogonalLoop=1;jettySize=auto;html=1;elbow=vertical;curved=0;" parent="dIbCbMfK42CENRf47W4k-41" target="dIbCbMfK42CENRf47W4k-47" edge="1">
          <mxGeometry relative="1" as="geometry">
            <mxPoint x="315" y="120" as="targetPoint" />
            <mxPoint x="115" y="110.00310344827594" as="sourcePoint" />
            <Array as="points">
              <mxPoint x="205" y="120" />
            </Array>
          </mxGeometry>
        </mxCell>
        <mxCell id="dIbCbMfK42CENRf47W4k-43" value="2.consultaProdutos()" style="edgeLabel;html=1;align=center;verticalAlign=middle;resizable=0;points=[];" parent="dIbCbMfK42CENRf47W4k-42" vertex="1" connectable="0">
          <mxGeometry x="0.1628" y="2" relative="1" as="geometry">
            <mxPoint x="-7" y="-8" as="offset" />
          </mxGeometry>
        </mxCell>
        <mxCell id="dIbCbMfK42CENRf47W4k-44" value="" style="html=1;points=[];perimeter=orthogonalPerimeter;outlineConnect=0;targetShapes=umlLifeline;portConstraint=eastwest;newEdgeStyle={&quot;edgeStyle&quot;:&quot;elbowEdgeStyle&quot;,&quot;elbow&quot;:&quot;vertical&quot;,&quot;curved&quot;:0,&quot;rounded&quot;:0};" parent="dIbCbMfK42CENRf47W4k-41" vertex="1">
          <mxGeometry x="105" y="90" width="10" height="80" as="geometry" />
        </mxCell>
        <mxCell id="dIbCbMfK42CENRf47W4k-47" value="&amp;lt;&amp;lt;Boundary&amp;gt;&amp;gt;&lt;div&gt;:&lt;span style=&quot;font-style: italic; text-wrap: nowrap; background-color: initial;&quot;&gt;PaginaListagemDeProdutoEstoque&lt;/span&gt;&lt;/div&gt;" style="shape=umlLifeline;perimeter=lifelinePerimeter;whiteSpace=wrap;html=1;container=0;dropTarget=0;collapsible=0;recursiveResize=0;outlineConnect=0;portConstraint=eastwest;newEdgeStyle={&quot;edgeStyle&quot;:&quot;elbowEdgeStyle&quot;,&quot;elbow&quot;:&quot;vertical&quot;,&quot;curved&quot;:0,&quot;rounded&quot;:0};" parent="1" vertex="1">
          <mxGeometry x="660" y="60" width="220" height="450" as="geometry" />
        </mxCell>
        <mxCell id="dIbCbMfK42CENRf47W4k-50" value="" style="html=1;points=[];perimeter=orthogonalPerimeter;outlineConnect=0;targetShapes=umlLifeline;portConstraint=eastwest;newEdgeStyle={&quot;edgeStyle&quot;:&quot;elbowEdgeStyle&quot;,&quot;elbow&quot;:&quot;vertical&quot;,&quot;curved&quot;:0,&quot;rounded&quot;:0};" parent="dIbCbMfK42CENRf47W4k-47" vertex="1">
          <mxGeometry x="105" y="90" width="10" height="80" as="geometry" />
        </mxCell>
        <mxCell id="dIbCbMfK42CENRf47W4k-52" value="&amp;lt;&amp;lt;Control&amp;gt;&amp;gt;&lt;div&gt;:&lt;span style=&quot;font-style: italic; text-wrap: nowrap; background-color: initial;&quot;&gt;ProdutoControl&lt;/span&gt;&lt;/div&gt;" style="shape=umlLifeline;perimeter=lifelinePerimeter;whiteSpace=wrap;html=1;container=0;dropTarget=0;collapsible=0;recursiveResize=0;outlineConnect=0;portConstraint=eastwest;newEdgeStyle={&quot;edgeStyle&quot;:&quot;elbowEdgeStyle&quot;,&quot;elbow&quot;:&quot;vertical&quot;,&quot;curved&quot;:0,&quot;rounded&quot;:0};" parent="1" vertex="1">
          <mxGeometry x="900" y="60" width="220" height="300" as="geometry" />
        </mxCell>
        <mxCell id="dIbCbMfK42CENRf47W4k-55" value="" style="html=1;points=[];perimeter=orthogonalPerimeter;outlineConnect=0;targetShapes=umlLifeline;portConstraint=eastwest;newEdgeStyle={&quot;edgeStyle&quot;:&quot;elbowEdgeStyle&quot;,&quot;elbow&quot;:&quot;vertical&quot;,&quot;curved&quot;:0,&quot;rounded&quot;:0};" parent="dIbCbMfK42CENRf47W4k-52" vertex="1">
          <mxGeometry x="105" y="90" width="10" height="80" as="geometry" />
        </mxCell>
        <mxCell id="dIbCbMfK42CENRf47W4k-48" style="edgeStyle=elbowEdgeStyle;rounded=0;orthogonalLoop=1;jettySize=auto;html=1;elbow=vertical;curved=0;" parent="1" source="dIbCbMfK42CENRf47W4k-50" target="dIbCbMfK42CENRf47W4k-55" edge="1">
          <mxGeometry relative="1" as="geometry">
            <mxPoint x="950" y="190" as="targetPoint" />
            <mxPoint x="1130" y="260" as="sourcePoint" />
            <Array as="points" />
          </mxGeometry>
        </mxCell>
        <mxCell id="dIbCbMfK42CENRf47W4k-49" value="3. adicionaProduto(produto)" style="edgeLabel;html=1;align=center;verticalAlign=middle;resizable=0;points=[];" parent="dIbCbMfK42CENRf47W4k-48" vertex="1" connectable="0">
          <mxGeometry x="0.1628" y="2" relative="1" as="geometry">
            <mxPoint x="-7" y="-8" as="offset" />
          </mxGeometry>
        </mxCell>
        <mxCell id="dIbCbMfK42CENRf47W4k-53" style="edgeStyle=elbowEdgeStyle;rounded=0;orthogonalLoop=1;jettySize=auto;html=1;elbow=vertical;curved=0;" parent="1" target="dIbCbMfK42CENRf47W4k-62" edge="1">
          <mxGeometry relative="1" as="geometry">
            <mxPoint x="1210" y="200" as="targetPoint" />
            <mxPoint x="1015" y="200" as="sourcePoint" />
            <Array as="points" />
          </mxGeometry>
        </mxCell>
        <mxCell id="dIbCbMfK42CENRf47W4k-65" value="4. seguirParaPagamento()//clickou no botão" style="edgeLabel;html=1;align=center;verticalAlign=middle;resizable=0;points=[];" parent="dIbCbMfK42CENRf47W4k-53" vertex="1" connectable="0">
          <mxGeometry x="-0.2679" relative="1" as="geometry">
            <mxPoint x="29" y="-10" as="offset" />
          </mxGeometry>
        </mxCell>
        <mxCell id="dIbCbMfK42CENRf47W4k-84" style="edgeStyle=elbowEdgeStyle;rounded=0;orthogonalLoop=1;jettySize=auto;html=1;elbow=vertical;curved=0;" parent="1" source="dIbCbMfK42CENRf47W4k-62" target="dIbCbMfK42CENRf47W4k-83" edge="1">
          <mxGeometry relative="1" as="geometry" />
        </mxCell>
        <mxCell id="dIbCbMfK42CENRf47W4k-85" value="6.mostrarTelaPagamento()" style="edgeLabel;html=1;align=center;verticalAlign=middle;resizable=0;points=[];" parent="dIbCbMfK42CENRf47W4k-84" vertex="1" connectable="0">
          <mxGeometry x="0.0471" y="1" relative="1" as="geometry">
            <mxPoint x="-39" y="-9" as="offset" />
          </mxGeometry>
        </mxCell>
        <mxCell id="dIbCbMfK42CENRf47W4k-86" style="edgeStyle=elbowEdgeStyle;rounded=0;orthogonalLoop=1;jettySize=auto;html=1;elbow=vertical;curved=0;dashed=1;" parent="1" source="dIbCbMfK42CENRf47W4k-62" target="dIbCbMfK42CENRf47W4k-47" edge="1">
          <mxGeometry relative="1" as="geometry">
            <Array as="points">
              <mxPoint x="1030" y="440" />
            </Array>
          </mxGeometry>
        </mxCell>
        <mxCell id="dIbCbMfK42CENRf47W4k-87" value="6.1 mostrarErro()" style="edgeLabel;html=1;align=center;verticalAlign=middle;resizable=0;points=[];" parent="dIbCbMfK42CENRf47W4k-86" vertex="1" connectable="0">
          <mxGeometry x="-0.6937" y="1" relative="1" as="geometry">
            <mxPoint x="1" y="-11" as="offset" />
          </mxGeometry>
        </mxCell>
        <mxCell id="dIbCbMfK42CENRf47W4k-62" value="&amp;lt;&amp;lt;Entity&amp;gt;&amp;gt;&lt;div&gt;ProdutoEstoque&lt;/div&gt;" style="shape=umlLifeline;perimeter=lifelinePerimeter;whiteSpace=wrap;html=1;container=0;dropTarget=0;collapsible=0;recursiveResize=0;outlineConnect=0;portConstraint=eastwest;newEdgeStyle={&quot;edgeStyle&quot;:&quot;elbowEdgeStyle&quot;,&quot;elbow&quot;:&quot;vertical&quot;,&quot;curved&quot;:0,&quot;rounded&quot;:0};" parent="1" vertex="1">
          <mxGeometry x="1140" y="60" width="220" height="440" as="geometry" />
        </mxCell>
        <mxCell id="dIbCbMfK42CENRf47W4k-63" value="" style="html=1;points=[];perimeter=orthogonalPerimeter;outlineConnect=0;targetShapes=umlLifeline;portConstraint=eastwest;newEdgeStyle={&quot;edgeStyle&quot;:&quot;elbowEdgeStyle&quot;,&quot;elbow&quot;:&quot;vertical&quot;,&quot;curved&quot;:0,&quot;rounded&quot;:0};" parent="dIbCbMfK42CENRf47W4k-62" vertex="1">
          <mxGeometry x="105" y="110" width="10" height="80" as="geometry" />
        </mxCell>
        <mxCell id="dIbCbMfK42CENRf47W4k-74" value="" style="html=1;points=[[0,0,0,0,5],[0,1,0,0,-5],[1,0,0,0,5],[1,1,0,0,-5]];perimeter=orthogonalPerimeter;outlineConnect=0;targetShapes=umlLifeline;portConstraint=eastwest;newEdgeStyle={&quot;curved&quot;:0,&quot;rounded&quot;:0};" parent="dIbCbMfK42CENRf47W4k-62" vertex="1">
          <mxGeometry x="110" y="210" width="10" height="40" as="geometry" />
        </mxCell>
        <mxCell id="dIbCbMfK42CENRf47W4k-75" value="&lt;span style=&quot;text-align: center;&quot;&gt;5. consultaEstoque(produto)&lt;/span&gt;" style="html=1;align=left;spacingLeft=2;endArrow=block;rounded=0;edgeStyle=orthogonalEdgeStyle;curved=0;rounded=0;" parent="dIbCbMfK42CENRf47W4k-62" target="dIbCbMfK42CENRf47W4k-74" edge="1">
          <mxGeometry relative="1" as="geometry">
            <mxPoint x="115" y="190" as="sourcePoint" />
            <Array as="points">
              <mxPoint x="145" y="220" />
            </Array>
          </mxGeometry>
        </mxCell>
        <mxCell id="dIbCbMfK42CENRf47W4k-76" value="alt" style="shape=umlFrame;whiteSpace=wrap;html=1;pointerEvents=0;" parent="1" vertex="1">
          <mxGeometry x="1070" y="320" width="360" height="140" as="geometry" />
        </mxCell>
        <mxCell id="dIbCbMfK42CENRf47W4k-78" value="" style="endArrow=none;dashed=1;html=1;rounded=0;entryX=0.996;entryY=0.571;entryDx=0;entryDy=0;entryPerimeter=0;exitX=0.001;exitY=0.565;exitDx=0;exitDy=0;exitPerimeter=0;dashPattern=8 8;" parent="1" source="dIbCbMfK42CENRf47W4k-76" target="dIbCbMfK42CENRf47W4k-76" edge="1">
          <mxGeometry width="50" height="50" relative="1" as="geometry">
            <mxPoint x="1160" y="400" as="sourcePoint" />
            <mxPoint x="1100" y="270" as="targetPoint" />
          </mxGeometry>
        </mxCell>
        <mxCell id="dIbCbMfK42CENRf47W4k-79" value="[if(EstoqueOk === true)]" style="edgeLabel;html=1;align=center;verticalAlign=middle;resizable=0;points=[];" parent="dIbCbMfK42CENRf47W4k-78" vertex="1" connectable="0">
          <mxGeometry x="-0.8662" y="1" relative="1" as="geometry">
            <mxPoint x="43" y="-22" as="offset" />
          </mxGeometry>
        </mxCell>
        <mxCell id="dIbCbMfK42CENRf47W4k-80" value="[caso contrário]" style="edgeLabel;html=1;align=center;verticalAlign=middle;resizable=0;points=[];" parent="1" vertex="1" connectable="0">
          <mxGeometry x="1159.9957942849505" y="410.0016913168363" as="geometry">
            <mxPoint x="-47" y="-1" as="offset" />
          </mxGeometry>
        </mxCell>
        <mxCell id="dIbCbMfK42CENRf47W4k-82" value="&amp;lt;&amp;lt;Boundary&amp;gt;&amp;gt;&lt;div&gt;:TelaPagamento&lt;/div&gt;" style="shape=umlLifeline;perimeter=lifelinePerimeter;whiteSpace=wrap;html=1;container=0;dropTarget=0;collapsible=0;recursiveResize=0;outlineConnect=0;portConstraint=eastwest;newEdgeStyle={&quot;edgeStyle&quot;:&quot;elbowEdgeStyle&quot;,&quot;elbow&quot;:&quot;vertical&quot;,&quot;curved&quot;:0,&quot;rounded&quot;:0};" parent="1" vertex="1">
          <mxGeometry x="1430" y="60" width="220" height="500" as="geometry" />
        </mxCell>
        <mxCell id="dIbCbMfK42CENRf47W4k-83" value="" style="html=1;points=[];perimeter=orthogonalPerimeter;outlineConnect=0;targetShapes=umlLifeline;portConstraint=eastwest;newEdgeStyle={&quot;edgeStyle&quot;:&quot;elbowEdgeStyle&quot;,&quot;elbow&quot;:&quot;vertical&quot;,&quot;curved&quot;:0,&quot;rounded&quot;:0};" parent="dIbCbMfK42CENRf47W4k-82" vertex="1">
          <mxGeometry x="105" y="250" width="10" height="80" as="geometry" />
        </mxCell>
        <mxCell id="dIbCbMfK42CENRf47W4k-94" style="edgeStyle=elbowEdgeStyle;rounded=0;orthogonalLoop=1;jettySize=auto;html=1;elbow=vertical;curved=0;dashed=1;" parent="1" source="dIbCbMfK42CENRf47W4k-90" target="dIbCbMfK42CENRf47W4k-82" edge="1">
          <mxGeometry relative="1" as="geometry">
            <Array as="points">
              <mxPoint x="1680" y="410" />
            </Array>
          </mxGeometry>
        </mxCell>
        <mxCell id="dIbCbMfK42CENRf47W4k-95" value="8. msgSucesso()" style="edgeLabel;html=1;align=center;verticalAlign=middle;resizable=0;points=[];" parent="dIbCbMfK42CENRf47W4k-94" vertex="1" connectable="0">
          <mxGeometry x="-0.1439" y="-2" relative="1" as="geometry">
            <mxPoint y="12" as="offset" />
          </mxGeometry>
        </mxCell>
        <mxCell id="dIbCbMfK42CENRf47W4k-90" value="&amp;lt;&amp;lt;Control&amp;gt;&amp;gt;&lt;div&gt;:PagamentoControl&lt;/div&gt;" style="shape=umlLifeline;perimeter=lifelinePerimeter;whiteSpace=wrap;html=1;container=0;dropTarget=0;collapsible=0;recursiveResize=0;outlineConnect=0;portConstraint=eastwest;newEdgeStyle={&quot;edgeStyle&quot;:&quot;elbowEdgeStyle&quot;,&quot;elbow&quot;:&quot;vertical&quot;,&quot;curved&quot;:0,&quot;rounded&quot;:0};" parent="1" vertex="1">
          <mxGeometry x="1720" y="60" width="220" height="490" as="geometry" />
        </mxCell>
        <mxCell id="dIbCbMfK42CENRf47W4k-93" value="" style="html=1;points=[];perimeter=orthogonalPerimeter;outlineConnect=0;targetShapes=umlLifeline;portConstraint=eastwest;newEdgeStyle={&quot;edgeStyle&quot;:&quot;elbowEdgeStyle&quot;,&quot;elbow&quot;:&quot;vertical&quot;,&quot;curved&quot;:0,&quot;rounded&quot;:0};" parent="dIbCbMfK42CENRf47W4k-90" vertex="1">
          <mxGeometry x="105" y="280" width="10" height="80" as="geometry" />
        </mxCell>
        <mxCell id="dIbCbMfK42CENRf47W4k-88" style="edgeStyle=elbowEdgeStyle;rounded=0;orthogonalLoop=1;jettySize=auto;html=1;elbow=vertical;curved=0;" parent="1" source="dIbCbMfK42CENRf47W4k-83" target="dIbCbMfK42CENRf47W4k-93" edge="1">
          <mxGeometry relative="1" as="geometry">
            <mxPoint x="1830" y="360" as="targetPoint" />
            <Array as="points">
              <mxPoint x="1690" y="360" />
            </Array>
          </mxGeometry>
        </mxCell>
        <mxCell id="dIbCbMfK42CENRf47W4k-89" value="7. pagar()" style="edgeLabel;html=1;align=center;verticalAlign=middle;resizable=0;points=[];" parent="dIbCbMfK42CENRf47W4k-88" vertex="1" connectable="0">
          <mxGeometry x="0.1306" y="3" relative="1" as="geometry">
            <mxPoint x="-6" y="-7" as="offset" />
          </mxGeometry>
        </mxCell>
        <mxCell id="2fTjNTlabWZ_PsEadNUo-11" value="Proprietario: Actor" style="shape=umlActor;verticalLabelPosition=bottom;verticalAlign=top;html=1;outlineConnect=0;" vertex="1" parent="1">
          <mxGeometry x="90" y="560" width="30" height="60" as="geometry" />
        </mxCell>
        <mxCell id="2fTjNTlabWZ_PsEadNUo-12" value="" style="endArrow=none;dashed=1;html=1;rounded=0;" edge="1" parent="1" source="2fTjNTlabWZ_PsEadNUo-16" target="2fTjNTlabWZ_PsEadNUo-11">
          <mxGeometry width="50" height="50" relative="1" as="geometry">
            <mxPoint x="105" y="870" as="sourcePoint" />
            <mxPoint x="370" y="670" as="targetPoint" />
          </mxGeometry>
        </mxCell>
        <mxCell id="2fTjNTlabWZ_PsEadNUo-13" value="" style="endArrow=none;dashed=1;html=1;rounded=0;" edge="1" parent="1" target="2fTjNTlabWZ_PsEadNUo-16">
          <mxGeometry width="50" height="50" relative="1" as="geometry">
            <mxPoint x="105" y="870" as="sourcePoint" />
            <mxPoint x="105" y="620" as="targetPoint" />
          </mxGeometry>
        </mxCell>
        <mxCell id="2fTjNTlabWZ_PsEadNUo-14" style="edgeStyle=orthogonalEdgeStyle;rounded=0;orthogonalLoop=1;jettySize=auto;html=1;curved=0;" edge="1" parent="1" source="2fTjNTlabWZ_PsEadNUo-16" target="2fTjNTlabWZ_PsEadNUo-20">
          <mxGeometry relative="1" as="geometry">
            <Array as="points">
              <mxPoint x="220" y="670" />
              <mxPoint x="220" y="670" />
            </Array>
          </mxGeometry>
        </mxCell>
        <mxCell id="2fTjNTlabWZ_PsEadNUo-15" value="1.entrar(tipo)" style="edgeLabel;html=1;align=center;verticalAlign=middle;resizable=0;points=[];" vertex="1" connectable="0" parent="2fTjNTlabWZ_PsEadNUo-14">
          <mxGeometry x="-0.2571" y="1" relative="1" as="geometry">
            <mxPoint x="19" y="-9" as="offset" />
          </mxGeometry>
        </mxCell>
        <mxCell id="2fTjNTlabWZ_PsEadNUo-16" value="" style="html=1;points=[[0,0,0,0,5],[0,1,0,0,-5],[1,0,0,0,5],[1,1,0,0,-5]];perimeter=orthogonalPerimeter;outlineConnect=0;targetShapes=umlLifeline;portConstraint=eastwest;newEdgeStyle={&quot;curved&quot;:0,&quot;rounded&quot;:0};" vertex="1" parent="1">
          <mxGeometry x="100" y="660" width="10" height="80" as="geometry" />
        </mxCell>
        <mxCell id="2fTjNTlabWZ_PsEadNUo-17" value="&amp;lt;&amp;lt;Boundary&amp;gt;&amp;gt;&lt;div&gt;:&lt;span style=&quot;font-style: italic; text-wrap: nowrap; background-color: initial;&quot;&gt;PaginaEntrar&lt;/span&gt;&lt;/div&gt;" style="shape=umlLifeline;perimeter=lifelinePerimeter;whiteSpace=wrap;html=1;container=0;dropTarget=0;collapsible=0;recursiveResize=0;outlineConnect=0;portConstraint=eastwest;newEdgeStyle={&quot;edgeStyle&quot;:&quot;elbowEdgeStyle&quot;,&quot;elbow&quot;:&quot;vertical&quot;,&quot;curved&quot;:0,&quot;rounded&quot;:0};" vertex="1" parent="1">
          <mxGeometry x="170" y="570" width="220" height="300" as="geometry" />
        </mxCell>
        <mxCell id="2fTjNTlabWZ_PsEadNUo-18" style="edgeStyle=elbowEdgeStyle;rounded=0;orthogonalLoop=1;jettySize=auto;html=1;elbow=vertical;curved=0;" edge="1" parent="2fTjNTlabWZ_PsEadNUo-17" target="2fTjNTlabWZ_PsEadNUo-38">
          <mxGeometry relative="1" as="geometry">
            <mxPoint x="349.5000000000002" y="109.66666666666674" as="targetPoint" />
            <mxPoint x="115" y="110.00310344827594" as="sourcePoint" />
          </mxGeometry>
        </mxCell>
        <mxCell id="2fTjNTlabWZ_PsEadNUo-47" value="1.1 entrar(tipo)" style="edgeLabel;html=1;align=center;verticalAlign=middle;resizable=0;points=[];" vertex="1" connectable="0" parent="2fTjNTlabWZ_PsEadNUo-18">
          <mxGeometry x="0.2185" relative="1" as="geometry">
            <mxPoint x="-35" y="-10" as="offset" />
          </mxGeometry>
        </mxCell>
        <mxCell id="2fTjNTlabWZ_PsEadNUo-20" value="" style="html=1;points=[];perimeter=orthogonalPerimeter;outlineConnect=0;targetShapes=umlLifeline;portConstraint=eastwest;newEdgeStyle={&quot;edgeStyle&quot;:&quot;elbowEdgeStyle&quot;,&quot;elbow&quot;:&quot;vertical&quot;,&quot;curved&quot;:0,&quot;rounded&quot;:0};" vertex="1" parent="2fTjNTlabWZ_PsEadNUo-17">
          <mxGeometry x="105" y="90" width="10" height="80" as="geometry" />
        </mxCell>
        <mxCell id="2fTjNTlabWZ_PsEadNUo-35" value="&amp;lt;&amp;lt;Boundary&amp;gt;&amp;gt;&lt;div&gt;:&lt;span style=&quot;text-wrap: nowrap;&quot;&gt;&lt;i&gt;Extrato de venda&lt;/i&gt;&lt;/span&gt;&lt;/div&gt;" style="shape=umlLifeline;perimeter=lifelinePerimeter;whiteSpace=wrap;html=1;container=0;dropTarget=0;collapsible=0;recursiveResize=0;outlineConnect=0;portConstraint=eastwest;newEdgeStyle={&quot;edgeStyle&quot;:&quot;elbowEdgeStyle&quot;,&quot;elbow&quot;:&quot;vertical&quot;,&quot;curved&quot;:0,&quot;rounded&quot;:0};" vertex="1" parent="1">
          <mxGeometry x="410" y="570" width="220" height="300" as="geometry" />
        </mxCell>
        <mxCell id="2fTjNTlabWZ_PsEadNUo-38" value="" style="html=1;points=[];perimeter=orthogonalPerimeter;outlineConnect=0;targetShapes=umlLifeline;portConstraint=eastwest;newEdgeStyle={&quot;edgeStyle&quot;:&quot;elbowEdgeStyle&quot;,&quot;elbow&quot;:&quot;vertical&quot;,&quot;curved&quot;:0,&quot;rounded&quot;:0};" vertex="1" parent="2fTjNTlabWZ_PsEadNUo-35">
          <mxGeometry x="105" y="90" width="10" height="80" as="geometry" />
        </mxCell>
        <mxCell id="2fTjNTlabWZ_PsEadNUo-41" value="&amp;lt;&amp;lt;Control&amp;gt;&amp;gt;&lt;div&gt;:&lt;span style=&quot;text-wrap: nowrap;&quot;&gt;&lt;i&gt;ProprietarioControl&lt;/i&gt;&lt;/span&gt;&lt;/div&gt;" style="shape=umlLifeline;whiteSpace=wrap;html=1;container=0;dropTarget=0;collapsible=0;recursiveResize=0;outlineConnect=0;portConstraint=eastwest;newEdgeStyle={&quot;curved&quot;:0,&quot;rounded&quot;:0};points=[[0,0,0,0,5],[0,1,0,0,-5],[1,0,0,0,5],[1,1,0,0,-5]];perimeter=rectanglePerimeter;targetShapes=umlLifeline;participant=label;" vertex="1" parent="1">
          <mxGeometry x="650" y="570" width="220" height="300" as="geometry" />
        </mxCell>
        <mxCell id="2fTjNTlabWZ_PsEadNUo-44" value="" style="html=1;points=[];perimeter=orthogonalPerimeter;outlineConnect=0;targetShapes=umlLifeline;portConstraint=eastwest;newEdgeStyle={&quot;edgeStyle&quot;:&quot;elbowEdgeStyle&quot;,&quot;elbow&quot;:&quot;vertical&quot;,&quot;curved&quot;:0,&quot;rounded&quot;:0};" vertex="1" parent="2fTjNTlabWZ_PsEadNUo-41">
          <mxGeometry x="105" y="90" width="10" height="80" as="geometry" />
        </mxCell>
        <mxCell id="2fTjNTlabWZ_PsEadNUo-48" value="" style="html=1;points=[[0,0,0,0,5],[0,1,0,0,-5],[1,0,0,0,5],[1,1,0,0,-5]];perimeter=orthogonalPerimeter;outlineConnect=0;targetShapes=umlLifeline;portConstraint=eastwest;newEdgeStyle={&quot;curved&quot;:0,&quot;rounded&quot;:0};" vertex="1" parent="2fTjNTlabWZ_PsEadNUo-41">
          <mxGeometry x="105" y="200" width="10" height="40" as="geometry" />
        </mxCell>
        <mxCell id="2fTjNTlabWZ_PsEadNUo-49" value="3. mostrarLista()" style="html=1;align=left;spacingLeft=2;endArrow=block;rounded=0;edgeStyle=orthogonalEdgeStyle;curved=0;rounded=0;" edge="1" target="2fTjNTlabWZ_PsEadNUo-48" parent="2fTjNTlabWZ_PsEadNUo-41">
          <mxGeometry relative="1" as="geometry">
            <mxPoint x="110" y="180" as="sourcePoint" />
            <Array as="points">
              <mxPoint x="140" y="210" />
            </Array>
          </mxGeometry>
        </mxCell>
        <mxCell id="2fTjNTlabWZ_PsEadNUo-36" style="edgeStyle=elbowEdgeStyle;rounded=0;orthogonalLoop=1;jettySize=auto;html=1;elbow=vertical;curved=0;" edge="1" parent="1" target="2fTjNTlabWZ_PsEadNUo-44">
          <mxGeometry relative="1" as="geometry">
            <mxPoint x="759.5000000000002" y="689.9966666666668" as="targetPoint" />
            <mxPoint x="525" y="690.3331034482759" as="sourcePoint" />
          </mxGeometry>
        </mxCell>
        <mxCell id="2fTjNTlabWZ_PsEadNUo-46" value="2. visualizarExtrato()" style="edgeLabel;html=1;align=center;verticalAlign=middle;resizable=0;points=[];" vertex="1" connectable="0" parent="2fTjNTlabWZ_PsEadNUo-36">
          <mxGeometry x="0.218" y="-2" relative="1" as="geometry">
            <mxPoint x="-15" y="-12" as="offset" />
          </mxGeometry>
        </mxCell>
        <mxCell id="2fTjNTlabWZ_PsEadNUo-50" style="edgeStyle=orthogonalEdgeStyle;rounded=0;orthogonalLoop=1;jettySize=auto;html=1;curved=0;dashed=1;" edge="1" parent="1" source="2fTjNTlabWZ_PsEadNUo-48" target="2fTjNTlabWZ_PsEadNUo-35">
          <mxGeometry relative="1" as="geometry">
            <Array as="points">
              <mxPoint x="600" y="790" />
              <mxPoint x="600" y="790" />
            </Array>
          </mxGeometry>
        </mxCell>
        <mxCell id="2fTjNTlabWZ_PsEadNUo-51" value="exibe extrato de vendas&amp;nbsp;" style="edgeLabel;html=1;align=center;verticalAlign=middle;resizable=0;points=[];" vertex="1" connectable="0" parent="2fTjNTlabWZ_PsEadNUo-50">
          <mxGeometry x="-0.0727" y="-2" relative="1" as="geometry">
            <mxPoint x="4" y="-8" as="offset" />
          </mxGeometry>
        </mxCell>
      </root>
    </mxGraphModel>
  </diagram>
</mxfile>
